{
    "asset" : {
        "generator" : "Khronos glTF Blender I/O v1.2.75",
        "version" : "2.0"
    },
    "scene" : 0,
    "scenes" : [
        {
            "name" : "Scene",
            "nodes" : [
                0
            ]
        }
    ],
    "nodes" : [
        {
            "mesh" : 0,
            "name" : "Sphere"
        }
    ],
    "meshes" : [
        {
            "name" : "Sphere",
            "primitives" : [
                {
                    "attributes" : {
                        "POSITION" : 0,
                        "NORMAL" : 1,
                        "TEXCOORD_0" : 2
                    },
                    "indices" : 3
                }
            ]
        }
    ],
    "accessors" : [
        {
            "bufferView" : 0,
            "componentType" : 5126,
            "count" : 4223,
            "max" : [
                0.9999979734420776,
                1,
                0.9999961853027344
            ],
            "min" : [
                -0.9999979138374329,
                -1,
                -1
            ],
            "type" : "VEC3"
        },
        {
            "bufferView" : 1,
            "componentType" : 5126,
            "count" : 4223,
            "type" : "VEC3"
        },
        {
            "bufferView" : 2,
            "componentType" : 5126,
            "count" : 4223,
            "type" : "VEC2"
        },
        {
            "bufferView" : 3,
            "componentType" : 5123,
            "count" : 24192,
            "type" : "SCALAR"
        }
    ],
    "bufferViews" : [
        {
            "buffer" : 0,
            "byteLength" : 50676,
            "byteOffset" : 0
        },
        {
            "buffer" : 0,
            "byteLength" : 50676,
            "byteOffset" : 50676
        },
        {
            "buffer" : 0,
            "byteLength" : 33784,
            "byteOffset" : 101352
        },
        {
            "buffer" : 0,
            "byteLength" : 48384,
            "byteOffset" : 135136
        }
    ],
    "buffers" : [
        {
            "byteLength" : 183520,
            "uri" : "data:application/octet-stream;base64,"
        }
    ]
}
